<svg xmlns="http://www.w3.org/2000/svg" xmlns:xlink="http://www.w3.org/1999/xlink" fill="none" version="1.1" width="660" height="200" viewBox="0 0 660 200"><defs><clipPath id="master_svg0_36_0630"><rect x="0" y="0" width="660" height="200" rx="0"/></clipPath></defs><g clip-path="url(#master_svg0_36_0630)"><g><path d="M24.4419985,157.51601Q22.7219985,157.51601,22.0339985,156.312Q21.3459983,155.108,21.3459983,153.73199Q21.5179983,150.808,22.7219985,150.464Q23.9259984,150.12,25.6459985,150.12Q30.117998999999998,150.12,32.869999,149.088Q35.621999,148.056,38.115999,145.476Q40.609999,142.896,43.705999,138.424L68.646,102.992L46.629999,68.419998Q42.33,61.883995,38.373999,59.045998Q34.417998,56.208,28.9139986,55.003998Q26.505998599999998,54.487999,25.5599985,54.143997Q24.6139984,53.799995,24.6139984,51.047997Q24.6139984,48.123993,26.6779985,47.865997Q28.7419987,47.607994,31.493999000000002,47.607994Q39.577999,47.607994,45.339998,49.327995Q51.101999,51.047997,55.66,55.003998Q60.217999,58.959999,64.689999,65.495995L78.793999,88.543999L95.821999,63.775993Q99.606003,58.099998,96.940002,56.723999Q94.274002,55.348,88.253998,55.348Q86.534004,55.348,85.330002,55.003998Q84.125999,54.659996,83.95399900000001,51.736Q83.95399900000001,50.359993,84.641998,49.155998Q85.330002,47.951996,86.877998,47.951996Q92.382004,48.123993,96.424004,48.295998Q100.466003,48.467995,105.625999,48.467995Q110.786003,48.467995,114.139999,48.295998Q117.494003,48.123993,122.998,47.951996Q124.718,47.951996,125.406,49.155998Q126.094,50.359993,126.094,51.736Q125.922,54.659996,124.804,55.003998Q123.686,55.348,121.794,55.348Q117.494003,55.348,114.57,56.379997Q111.646004,57.411995,109.237999,59.991997Q106.830002,62.571999,103.734001,67.043999L83.610001,95.595993L113.538002,138.252Q116.461998,142.552,119.987999,146.336Q123.514,150.12,129.19,150.12Q131.082,150.12,132.2,150.464Q133.31799999999998,150.808,133.49000999999998,153.73199Q133.49000999999998,155.108,132.80200000000002,156.312Q132.114,157.51601,130.566,157.51601Q125.062,157.172,120.07401,157.086Q115.085999,157,109.926003,157Q100.122002,157,88.942001,157.51601Q87.222,157.51601,86.534004,156.312Q85.846001,155.108,85.846001,153.73199Q86.017998,150.808,87.222,150.464Q88.426003,150.12,90.146004,150.12Q95.306,150.12,96.681999,147.53999Q98.057999,144.96001,95.650002,141.692L73.633999,110.216L51.617999999999995,141.692Q47.834,147.196,50.585999,148.658Q53.338001,150.12,59.186001,150.12Q61.077999,150.12,62.195999,150.464Q63.313999,150.808,63.486,153.73199Q63.486,155.108,62.798,156.312Q62.110001,157.51601,60.562,157.51601Q55.057999,157.172,51.015999,157.086Q46.973999,157,41.813998999999995,157Q36.653999,157,33.299998,157.086Q29.9459982,157.172,24.4419985,157.51601ZM189.73401,160.44Q175.28601,160.44,163.16,154.334Q151.034,148.228,143.724,135.586Q136.414,122.944,136.414,103.508Q136.414,85.963997,144.06799999999998,72.806Q151.722,59.647995,165.31,52.337997Q178.89801,45.028,196.442,45.028Q202.46201,45.028,208.826,46.403999Q215.19,47.779999,220.694,50.617996Q226.198,53.455994,229.552,58.099998Q232.90601,62.743996,232.90601,69.279999Q232.90601,76.332001,228.606,82.093994Q224.306,87.855995,216.56601,87.855995Q213.298,87.855995,209.772,86.222Q206.246,84.587997,206.07401,81.663994Q206.07401,81.147995,208.224,79.771996Q210.37399,78.395996,212.524,75.557999Q214.67401,72.719994,214.67401,68.075996Q214.67401,60.68,208.998,56.293999Q203.32201,51.907997,194.37801,51.907997Q183.886,51.907997,175.28601,57.755997Q166.686,63.603996,161.612,74.869995Q156.53799,86.135994,156.53799,102.476Q156.53799,117.95599,161.44,129.05Q166.34201,140.144,175.2,146.078Q184.058,152.01199,195.754,152.01199Q201.42999,152.01199,205.55801,151.32401Q209.686,150.636,214.33,149.25999L214.33,131.716Q214.33,126.9,213.98599,124.062Q213.642,121.224,211.578,119.848Q209.51401,118.472,204.354,118.472Q202.634,118.472,201.172,118.128Q199.70999,117.784,199.53799,114.86Q199.53799,113.48399,200.48401,112.28Q201.42999,111.076,203.14999,111.076Q208.65399,111.248,212.438,111.42Q216.222,111.592,222.07001,111.592Q227.918,111.592,231.616,111.42Q235.314,111.248,240.646,111.076Q242.366,111.076,243.14001,112.28Q243.914,113.48399,243.914,114.86Q243.742,117.784,242.366,118.128Q240.99001,118.472,239.09801,118.472Q234.28201,118.472,232.304,119.934Q230.326,121.396,229.896,124.32Q229.466,127.244,229.466,131.716L229.466,152.01199Q222.758,155.108,216.996,157Q211.23401,158.892,204.784,159.666Q198.334,160.44,189.73401,160.44ZM257.158,122.772Q255.438,122.772,254.32001,120.88Q253.20201,118.988,253.20201,117.268Q253.20201,115.376,254.32001,113.57Q255.438,111.764,257.158,111.764L294.82599,111.764Q296.71802,111.764,297.75,113.57Q298.78201,115.376,298.78201,117.268Q298.78201,118.988,297.75,120.88Q296.71802,122.772,294.82599,122.772L257.158,122.772ZM314.77802,157.51601Q313.05801,157.51601,312.37,156.312Q311.68201,155.108,311.68201,153.73199Q311.854,150.808,313.05801,150.464Q314.26199,150.12,315.98199,150.12Q321.48602,150.12,323.72202,148.142Q325.95801,146.164,326.56,143.15399Q327.16202,140.144,327.16202,136.87601L327.16202,68.591995Q327.16202,65.323997,326.56,62.313995Q325.95801,59.303993,323.72202,57.325996Q321.48602,55.348,315.98199,55.348Q314.26199,55.348,313.05801,55.003998Q311.854,54.659996,311.68201,51.736Q311.68201,50.359993,312.37,49.155998Q313.05801,47.951996,314.77802,47.951996Q320.28201,48.123993,325.09802,48.295998Q329.914,48.467995,335.07401,48.467995L359.32602,48.467995Q369.302,48.467995,375.06403,49.929993Q380.82602,51.391998,385.12601,54.143997Q389.59802,57.067993,392.17801,62.141998Q394.758,67.215996,394.758,73.236Q394.758,80.975998,391.146,86.222Q387.534,91.467995,382.11603,94.477997Q376.698,97.487999,371.53802,98.692001L371.53802,99.207993Q380.65399,99.035995,387.70599,102.476Q394.758,105.916,398.88602,111.592Q403.01401,117.268,403.186,123.976Q403.53003,133.78,399.05801,140.144Q394.586,146.508,387.448,150.29199Q380.31,154.076,371.96802,155.62399Q363.62601,157.172,355.88602,157.172L335.246,157Q330.086,157,325.18402,157.086Q320.28201,157.172,314.77802,157.51601ZM344.19,95.767998L351.414,95.767998Q354.854,95.767998,359.15402,95.423996Q363.45401,95.080002,367.41,93.274002Q371.36603,91.467995,373.86002,87.253998Q376.354,83.040001,376.354,75.299995Q376.354,66.183998,371.96802,60.507996Q367.582,54.831993,356.23001,54.831993L344.19,54.831993L344.19,95.767998ZM356.57401,150.29199Q364.31403,150.12,370.67801,147.71201Q377.04199,145.304,380.82602,139.62801Q384.61002,133.952,384.61002,123.976Q384.09399,118.472,380.91202,113.656Q377.73001,108.84,370.59201,105.744Q363.45401,102.64799,351.242,102.64799L344.19,102.64799L344.19,136.87601Q344.19,145.476,346.77002,147.884Q349.35001,150.29199,356.57401,150.29199ZM415.05402,157.51601Q413.85001,157.51601,413.07602,156.39799Q412.302,155.28,412.302,154.076Q412.474,151.496,413.59201,151.23801Q414.71002,150.98,416.258,150.98Q421.07401,150.98,422.88,149.34599Q424.686,147.71201,424.944,144.96001Q425.202,142.20799,425.202,139.284L425.202,55.348Q425.202,52.251999,424.944,49.585999Q424.686,46.919998,422.966,45.285995Q421.246,43.651993,416.43002,43.651993Q414.88202,43.651993,413.59201,43.221992Q412.302,42.792,412.302,40.211998Q412.302,37.631996,415.05402,37.115997Q422.966,35.911995,427.18002,34.707993Q431.39401,33.503998,433.63,32.643997Q435.866,31.783997,437.586,31.612Q438.96201,31.439995,439.90802,32.127998Q440.854,32.815994,440.854,34.879997L440.854,139.284Q440.854,142.20799,441.112,144.96001Q441.37,147.71201,443.17603,149.34599Q444.98199,150.98,449.798,150.98Q451.34601,150.98,452.46402,151.23801Q453.582,151.496,453.754,154.076Q453.754,155.28,453.06601,156.39799Q452.37802,157.51601,451.00201,157.51601Q446.01401,157.172,441.80002,157.086Q437.586,157,432.94202,157Q428.298,157,424.17001,157.086Q420.04202,157.172,415.05402,157.51601ZM503.46201,159.064Q491.42203,159.064,482.39203,153.388Q473.362,147.71201,468.37402,138.59599Q463.38602,129.48,463.38602,119.16Q463.38602,109.01199,466.99802,101.1Q470.61002,93.188004,476.54401,87.855995Q482.47803,82.523994,489.53003,79.771996Q496.58203,77.019997,503.46201,77.019997Q515.5020099999999,77.019997,524.53201,82.695999Q533.56201,88.371994,538.55005,97.487999Q543.53802,106.604,543.53802,116.924Q543.53802,127.072,539.84003,134.98399Q536.14203,142.896,530.2080100000001,148.228Q524.2740200000001,153.56,517.2220199999999,156.312Q510.17001,159.064,503.46201,159.064ZM503.46201,152.7Q511.89001,152.7,516.79202,147.71201Q521.69403,142.724,523.84402,134.554Q525.99402,126.384,525.99402,116.924Q525.99402,107.808,523.75803,100.24Q521.52203,92.671997,516.53403,88.028Q511.54602,83.383995,503.46201,83.383995Q495.03403,83.383995,490.04602,88.285995Q485.05801,93.188004,482.99402,101.186Q480.93002,109.184,480.93002,118.81599Q480.93002,127.75999,483.08002,135.5Q485.23001,143.24001,490.21802,147.97Q495.20602,152.7,503.46201,152.7ZM590.83795,194.496Q554.54596,194.496,554.54596,173.856Q554.54596,168.17999,558.15796,163.79401Q561.76996,159.408,567.78998,159.408Q571.74597,159.408,574.32599,161.558Q576.90601,163.70801,576.90601,164.56799Q576.90601,164.912,575.61597,166.116Q574.32599,167.32001,573.03595,169.384Q571.74597,171.448,571.74597,174.888Q571.74597,188.132,594.44995,188.132Q607.34998,188.132,614.48798,183.66Q621.62598,179.188,621.62598,170.07201Q621.62598,165.084,618.44397,162.504Q615.26196,159.924,610.01599,158.892Q604.76996,157.86,598.40601,157.60201Q592.04199,157.34399,585.59198,157.172Q579.14197,157,573.638,156.14Q567.61798,155.108,563.57599,152.09801Q559.534,149.088,559.534,142.20799Q559.534,135.84399,564.09198,131.114Q568.64996,126.384,577.76599,126.384Q566.758,122.084,563.06,115.892Q559.362,109.7,559.362,103.164Q559.362,95.767998,563.57599,89.834Q567.78998,83.899994,575.27197,80.374001Q582.75397,76.848,592.55798,76.848Q597.37396,76.848,602.62,77.621994Q607.86597,78.395996,611.64996,80.287994L635.21399,75.815994Q637.10596,75.643997,637.79401,77.019997Q638.48199,78.395996,638.48199,79.944Q638.48199,82.18,637.79401,84.329994Q637.10596,86.479996,635.90198,86.479996L618.87396,85.792L618.87396,86.135994Q621.79797,89.059998,623.862,93.875999Q625.92596,98.692001,625.92596,102.992Q625.92596,111.248,621.19598,117.268Q616.466,123.28799,609.15601,126.47Q601.84595,129.65199,593.93396,129.65199L586.36597,129.65199Q577.422,129.65199,573.38,131.37199Q569.33795,133.092,569.33795,137.048Q569.33795,140.144,571.48798,141.778Q573.638,143.412,579.31396,143.756L602.87799,144.616Q621.28198,145.304,629.10797,150.464Q636.93396,155.62399,636.93396,165.772Q636.93396,174.888,631.172,181.338Q625.40997,187.78799,615.00397,191.142Q604.59796,194.496,590.83795,194.496ZM592.55798,124.664Q600.46997,124.664,605.45801,119.074Q610.44598,113.48399,610.44598,102.992Q610.44598,93.360001,605.37195,87.769997Q600.29797,82.18,592.38599,82.18Q584.81799,82.18,579.74396,87.598Q574.66998,93.015999,574.66998,102.64799Q574.66998,113.14,579.74396,118.902Q584.81799,124.664,592.55798,124.664Z" fill="#3C4758" fill-opacity="1" style="mix-blend-mode:passthrough"/></g></g></svg>