<svg xmlns="http://www.w3.org/2000/svg" width="1200" height="630" viewBox="0 0 1200 630" role="img" aria-labelledby="title desc">
  <title id="title">Hello World cover</title>
  <desc id="desc">A simple cover image for the hello-world example post.</desc>
  <rect width="1200" height="630" fill="#f6f8fb"/>
  <path d="M0 480 C180 410 300 560 480 490 C680 412 820 350 1200 450 L1200 630 L0 630 Z" fill="#d9edf7"/>
  <circle cx="970" cy="145" r="84" fill="#ffd166"/>
  <rect x="112" y="118" width="620" height="360" rx="26" fill="#ffffff" stroke="#1f2937" stroke-width="6"/>
  <rect x="112" y="118" width="620" height="58" rx="26" fill="#1f2937"/>
  <circle cx="154" cy="147" r="10" fill="#ff6b6b"/>
  <circle cx="188" cy="147" r="10" fill="#ffd166"/>
  <circle cx="222" cy="147" r="10" fill="#06d6a0"/>
  <text x="158" y="268" fill="#1f2937" font-family="Consolas, 'Courier New', monospace" font-size="44" font-weight="700">Hello World</text>
  <text x="158" y="336" fill="#486581" font-family="Consolas, 'Courier New', monospace" font-size="28">category: website</text>
  <text x="158" y="388" fill="#486581" font-family="Consolas, 'Courier New', monospace" font-size="28">tag: hello-world</text>
  <path d="M805 384 h215 l-38 92 h-215 Z" fill="#6aa6c8"/>
  <path d="M850 246 h150 l42 138 h-215 Z" fill="#8ecae6"/>
  <path d="M875 246 l46 -76 l54 76 Z" fill="#219ebc"/>
  <circle cx="925" cy="248" r="18" fill="#ffffff"/>
</svg>
