<svg xmlns="http://www.w3.org/2000/svg" viewBox="0 0 960 540" role="img" aria-labelledby="title desc">
  <title id="title">Demo page illustration</title>
  <desc id="desc">A simple browser-style page preview with cards and a content image placeholder.</desc>
  <rect width="960" height="540" fill="#f4f0e8"/>
  <rect x="96" y="72" width="768" height="396" rx="24" fill="#fffdf8" stroke="#263238" stroke-width="6"/>
  <rect x="96" y="72" width="768" height="64" rx="24" fill="#263238"/>
  <circle cx="140" cy="104" r="10" fill="#ef6f6c"/>
  <circle cx="174" cy="104" r="10" fill="#f2bf5e"/>
  <circle cx="208" cy="104" r="10" fill="#6fba7c"/>
  <rect x="252" y="94" width="350" height="20" rx="10" fill="#e6edf0"/>
  <rect x="152" y="178" width="306" height="38" rx="8" fill="#263238"/>
  <rect x="152" y="238" width="252" height="18" rx="9" fill="#78909c"/>
  <rect x="152" y="274" width="326" height="18" rx="9" fill="#b0bec5"/>
  <rect x="152" y="310" width="282" height="18" rx="9" fill="#b0bec5"/>
  <rect x="152" y="364" width="138" height="44" rx="12" fill="#6aa6c8"/>
  <rect x="540" y="178" width="268" height="230" rx="20" fill="#f7d9a8" stroke="#263238" stroke-width="5"/>
  <circle cx="624" cy="248" r="34" fill="#ef6f6c"/>
  <path d="M574 354 640 292l46 42 34-30 64 50v28H574Z" fill="#6fba7c"/>
  <rect x="540" y="430" width="88" height="14" rx="7" fill="#90a4ae"/>
  <rect x="646" y="430" width="162" height="14" rx="7" fill="#cfd8dc"/>
</svg>
