<svg xmlns="http://www.w3.org/2000/svg" xmlns:xlink="http://www.w3.org/1999/xlink" fill="none" version="1.1" width="192" height="192" viewBox="0 0 192 192"><path d="M0 44C3.924219170633544e-15 19.699471007445087 19.699471007445094 0 44 0L148 0C172.30052899255492 0 192 19.699471007445094 192 44L192 148C192 172.30052899255492 172.30052899255492 192 148 192L44 192C19.699471007445094 192 0 172.30052899255492 0 148Z" fill="#2C2C2E" fill-opacity="1"/><path d="M32.6928648,32.2935314L117.491501,102.764679C118.865639,103.903236,120.888824,103.701599,122.01738,102.314011L157.26536,58.895145C158.79152,57.015361999999996,157.82088,54.163069,155.48191,53.635307L35.4294364,26.588948786C32.12566918,25.84177899,30.0732403,30.1172504,32.6928648,32.2935314Z" fill="#FFFFFF" fill-opacity="1" style="mix-blend-mode:passthrough"/><path d="M159.30843,159.7034L74.509659,89.2376588C73.135525,88.09920302,71.112331,88.30080257,69.983784,89.6882992L34.73574722,133.103825C33.20958,134.983456,34.18024574,137.835537,36.5191996,138.363258L156.56601,165.413467C159.87563,166.160576,161.92804999999998,161.885445,159.30843,159.7034Z" fill="#FFFFFF" fill-opacity="1" style="opacity:0.5;"/></svg>