<svg xmlns="http://www.w3.org/2000/svg" viewBox="0 0 1200 675" role="img" aria-label="Default article cover illustration">
  <defs>
    <linearGradient id="bg" x1="0" y1="0" x2="1" y2="1">
      <stop offset="0" stop-color="#f6f8fb"/>
      <stop offset="0.58" stop-color="#e8f0ed"/>
      <stop offset="1" stop-color="#f2e5d6"/>
    </linearGradient>
    <linearGradient id="panel" x1="0" y1="0" x2="1" y2="1">
      <stop offset="0" stop-color="#ffffff" stop-opacity="0.9"/>
      <stop offset="1" stop-color="#edf3f1" stop-opacity="0.88"/>
    </linearGradient>
    <linearGradient id="hillFront" x1="0" y1="0" x2="1" y2="0">
      <stop offset="0" stop-color="#2f6f68"/>
      <stop offset="1" stop-color="#7a9d78"/>
    </linearGradient>
    <pattern id="dots" width="42" height="42" patternUnits="userSpaceOnUse">
      <circle cx="4" cy="4" r="2" fill="#17423d" opacity="0.08"/>
    </pattern>
    <filter id="softShadow" x="-20%" y="-20%" width="140%" height="140%">
      <feDropShadow dx="0" dy="18" stdDeviation="24" flood-color="#24413e" flood-opacity="0.14"/>
    </filter>
  </defs>

  <rect width="1200" height="675" fill="url(#bg)"/>
  <rect width="1200" height="675" fill="url(#dots)"/>

  <circle cx="970" cy="150" r="74" fill="#f2b66d" opacity="0.9"/>
  <circle cx="970" cy="150" r="112" fill="#f2b66d" opacity="0.12"/>

  <g filter="url(#softShadow)">
    <rect x="165" y="95" width="870" height="485" rx="30" fill="url(#panel)"/>
    <rect x="190" y="120" width="820" height="435" rx="22" fill="#f8fbfa"/>
    <path d="M190 430C275 362 333 380 415 438C505 502 598 506 686 446C779 382 861 350 1010 455V555H190Z" fill="#d7e4df"/>
    <path d="M190 494C305 405 393 421 501 498C624 586 721 558 816 481C885 425 936 409 1010 438V555H190Z" fill="url(#hillFront)"/>
    <path d="M190 370L356 242L479 370L604 286L823 555H190Z" fill="#8fb2a7" opacity="0.88"/>
    <path d="M386 272L356 242L328 264L360 274Z" fill="#f8fbfa" opacity="0.86"/>
    <path d="M637 326L604 286L568 333L608 321Z" fill="#f8fbfa" opacity="0.78"/>
    <circle cx="325" cy="198" r="40" fill="#e89556"/>
  </g>

  <path d="M92 160C142 132 186 132 232 160" fill="none" stroke="#315f5a" stroke-width="12" stroke-linecap="round" opacity="0.18"/>
  <path d="M996 504C1048 474 1094 474 1142 504" fill="none" stroke="#a66a3f" stroke-width="12" stroke-linecap="round" opacity="0.2"/>
</svg>
